<?xml version="1.0" standalone="no"?>
<!DOCTYPE svg PUBLIC "-//W3C//DTD SVG 20010904//EN"
 "http://www.w3.org/TR/2001/REC-SVG-20010904/DTD/svg10.dtd">
<svg version="1.0" xmlns="http://www.w3.org/2000/svg"
 width="168" height="195" viewBox="0 0 168.000000 195.000000"
 preserveAspectRatio="xMidYMid meet">

<g transform="translate(0.000000,195.000000) scale(0.100000,-0.100000)"
fill="#FEFFB5" stroke="none">
<path d="M350 1853 c-8 -3 -25 -15 -37 -26 -22 -20 -23 -27 -23 -201 l0 -181
86 85 85 85 -3 97 c-2 82 -6 101 -23 117 -22 21 -62 32 -85 24z"/>
<path d="M715 1761 c-28 -12 -541 -535 -560 -571 -29 -56 13 -120 78 -120 26
0 53 22 175 143 79 78 207 208 283 289 115 122 139 152 139 177 0 56 -66 102
-115 82z"/>
<path d="M938 1759 c-30 -12 -61 -69 -51 -96 3 -10 17 -31 31 -48 31 -39 489
-501 521 -526 55 -43 131 -5 131 67 0 39 -19 61 -405 451 -153 156 -176 171
-227 152z"/>
<path d="M143 994 c-21 -21 -24 -32 -19 -62 6 -38 36 -72 65 -72 14 0 16 -30
16 -314 l0 -314 30 -44 c19 -27 48 -52 80 -68 l50 -25 375 -3 c206 -2 437 0
512 5 124 8 140 12 175 36 22 15 50 46 64 70 24 42 24 42 24 348 l0 307 26 9
c59 23 73 89 29 133 -20 20 -36 20 -710 20 l-691 0 -26 -26z m379 -168 c4 -6
8 -127 8 -268 0 -245 -1 -259 -20 -278 -25 -25 -41 -25 -71 -1 -24 19 -24 20
-26 266 -1 136 2 258 7 271 17 43 77 49 102 10z m770 0 c4 -6 8 -127 8 -268 0
-245 -1 -259 -20 -278 -25 -25 -41 -25 -69 -2 -21 17 -21 22 -19 287 l3 269
24 13 c25 12 57 3 73 -21z m-518 2 c14 -19 16 -62 16 -272 0 -243 -1 -250 -22
-273 -27 -28 -48 -29 -76 -3 -22 20 -22 26 -22 277 0 225 2 259 17 275 23 25
68 23 87 -4z m254 10 c9 -9 12 -85 12 -279 0 -265 0 -268 -22 -283 -30 -21
-44 -20 -68 4 -19 19 -20 33 -20 279 0 223 2 262 16 275 18 19 65 21 82 4z"/>
</g>
</svg>
