<?xml version="1.0" standalone="no"?>
<!DOCTYPE svg PUBLIC "-//W3C//DTD SVG 20010904//EN"
 "http://www.w3.org/TR/2001/REC-SVG-20010904/DTD/svg10.dtd">
<svg version="1.0" xmlns="http://www.w3.org/2000/svg"
 width="100" height="100" viewBox="0 0 474.000000 432.000000"
 preserveAspectRatio="xMidYMid meet">

<g transform="translate(0.000000,432.000000) scale(0.100000,-0.100000)"
fill="#FF0000" stroke="none">
<path d="M2145 4074 c-643 -86 -1196 -490 -1475 -1077 -285 -600 -236 -1322
127 -1872 363 -548 950 -865 1605 -865 530 0 1007 203 1379 587 562 579 697
1451 337 2181 -33 67 -63 121 -67 121 -3 -1 -62 -59 -130 -130 l-123 -127 41
-97 c165 -384 172 -804 21 -1188 -195 -495 -616 -851 -1147 -969 -83 -19 -130
-22 -308 -23 -226 0 -311 12 -493 71 -425 138 -795 485 -962 902 -198 494
-139 1030 162 1475 85 125 285 325 408 406 258 172 516 256 816 268 240 9 464
-30 661 -115 l91 -39 78 64 c43 35 109 87 146 116 37 28 68 54 68 58 0 10
-191 105 -289 143 -277 109 -643 151 -946 110z"/>
<path d="M3710 3858 c-67 -35 -284 -196 -470 -348 -120 -98 -652 -543 -778
-651 l-73 -62 -26 24 c-67 62 -204 226 -337 404 -83 111 -160 204 -179 215
-36 22 -109 27 -153 10 -15 -6 -71 -53 -123 -103 -53 -51 -116 -110 -141 -132
-65 -56 -80 -82 -80 -141 0 -69 53 -172 168 -329 49 -66 139 -193 200 -281
l112 -162 -314 -313 c-188 -189 -324 -333 -341 -362 -23 -39 -27 -57 -23 -96
7 -71 37 -124 150 -262 212 -261 236 -283 315 -295 101 -15 145 15 284 198 89
117 257 315 387 458 l60 65 23 -30 c190 -241 512 -555 688 -671 80 -52 200
-31 285 52 52 51 153 226 182 318 33 106 42 221 21 263 -18 34 -83 94 -224
205 -148 117 -302 247 -384 326 l-77 73 257 242 c141 133 364 346 496 473 509
491 518 503 482 641 -19 73 -71 154 -150 234 -67 68 -68 69 -121 69 -40 0 -68
-8 -116 -32z"/>
</g>
</svg>
